<svg xmlns="http://www.w3.org/2000/svg" viewBox="0 0 32 32" id="crewmate"><path d="M25.965 21.173c.01-.058.035-.111.035-.173v-6.03c.62-.834 1-1.854 1-2.97a4.982 4.982 0 0 0-1.489-3.553C24.488 5.848 21.958 4 19 4h-4c-3.86 0-7 3.14-7 7H7c-1.654 0-3 1.346-3 3v8c0 1.654 1.346 3 3 3h1.101c.465 2.28 2.485 4 4.899 4h4c.771 0 1.468-.3 2-.78l.053.044A.986.986 0 0 0 20 29h5c1.654 0 3-1.346 3-3v-2a2.994 2.994 0 0 0-2.035-2.827zM8 23H7a1 1 0 0 1-1-1v-8a1 1 0 0 1 1-1h1v10zm17-11c0 1.654-1.346 3-3 3h-4c-1.654 0-3-1.346-3-3s1.346-3 3-3h4c1.654 0 3 1.346 3 3zm1 14a1 1 0 0 1-1 1h-4a1 1 0 0 1-1-1v-2c0-1.654-1.346-3-3-3h-1a1 1 0 1 0 0 2h1a1 1 0 0 1 1 1v2a1 1 0 0 1-1 1h-4c-1.654 0-3-1.346-3-3V11c0-2.757 2.243-5 5-5h4c1.12 0 2.149.376 2.982 1H18c-2.757 0-5 2.243-5 5s2.243 5 5 5h4c.712 0 1.386-.154 2-.424V21h-1a1 1 0 1 0 0 2h2a1 1 0 0 1 1 1v2zm-4-15a1 1 0 1 1 2 0 1 1 0 0 1-2 0zm-4-1h2a1 1 0 1 1 0 2h-2a1 1 0 1 1 0-2z"></path></svg>