<?xml version="1.0" standalone="no"?>
<!DOCTYPE svg PUBLIC "-//W3C//DTD SVG 20010904//EN"
 "http://www.w3.org/TR/2001/REC-SVG-20010904/DTD/svg10.dtd">
<svg version="1.0" xmlns="http://www.w3.org/2000/svg"
 width="945.000000pt" height="946.000000pt" viewBox="0 0 945.000000 946.000000"
 preserveAspectRatio="xMidYMid meet">
<metadata>
Created by potrace 1.16, written by Peter Selinger 2001-2019
</metadata>
<g transform="translate(0.000000,946.000000) scale(0.100000,-0.100000)"
fill="#000000" stroke="none">
<path d="M4550 6564 c-24 -3 -39 -12 -45 -26 -6 -13 -35 -32 -75 -48 -59 -24
-270 -172 -270 -188 0 -4 -29 -42 -65 -85 -40 -48 -62 -83 -58 -92 3 -9 -15
-45 -43 -87 -30 -45 -51 -89 -56 -117 -21 -128 -21 -128 -2 -136 38 -15 311
-24 734 -24 536 0 816 10 836 31 13 13 13 25 1 96 -12 69 -21 91 -61 146 -25
35 -46 76 -46 89 0 16 -23 53 -60 99 -33 40 -60 76 -60 80 0 16 -201 155 -265
183 -44 19 -74 39 -80 53 -8 19 -18 22 -70 22 -33 0 -109 2 -170 4 -60 2 -126
2 -145 0z m350 -44 c0 -11 -7 -52 -16 -92 l-16 -73 -149 0 -148 0 -10 45 c-23
109 -24 122 -10 131 8 5 89 9 182 9 160 0 167 -1 167 -20z m115 -65 c66 -28
67 -31 40 -83 -46 -90 -45 -90 -104 -62 -56 26 -58 32 -40 110 17 80 7 76 104
35z m-496 -7 c5 -18 13 -49 16 -69 7 -35 6 -36 -46 -57 -41 -17 -55 -20 -66
-10 -16 13 -66 108 -61 114 10 9 115 53 130 53 10 1 20 -11 27 -31z m-151
-191 c-18 -16 -45 -35 -61 -43 -26 -14 -28 -13 -60 22 -39 44 -51 64 -43 71 3
3 34 25 68 48 l63 43 33 -57 32 -56 -32 -28z m809 92 c35 -23 62 -46 61 -50
-7 -20 -84 -109 -94 -109 -16 0 -104 71 -104 84 0 15 59 116 67 116 4 0 35
-19 70 -41z m-310 -39 c155 -50 311 -186 382 -332 24 -49 44 -108 48 -137 5
-47 4 -51 -15 -51 -27 0 -31 8 -48 86 -41 198 -232 380 -435 414 -135 23 -262
-2 -369 -71 -135 -87 -228 -218 -254 -356 -12 -67 -30 -91 -59 -80 -14 5 -14
12 -1 66 55 236 284 450 514 479 64 8 183 -1 237 -18z m-36 -56 c207 -62 345
-215 383 -426 l7 -38 -50 0 c-49 0 -51 2 -70 38 -11 21 -40 63 -64 93 -25 30
-54 70 -65 88 l-19 32 -26 -30 -25 -31 -7 40 c-7 43 -18 49 -47 23 -10 -9 -19
-14 -21 -12 -1 2 -13 26 -27 53 -14 27 -29 49 -35 48 -5 0 -15 -22 -22 -47
-15 -61 -18 -63 -38 -26 -8 17 -19 31 -23 31 -5 0 -18 -22 -29 -50 -12 -27
-25 -50 -30 -50 -20 0 -83 73 -83 95 0 29 -36 53 -53 36 -7 -7 -1 -25 20 -60
29 -45 30 -53 22 -92 -19 -81 -42 -87 -130 -32 -33 20 -62 34 -65 31 -6 -6 10
-126 22 -165 6 -23 5 -23 -74 -23 -45 0 -83 4 -86 8 -10 17 23 141 54 203 39
77 133 173 210 214 117 62 261 81 371 49z m-612 -29 c17 -20 31 -43 31 -53 0
-9 -17 -37 -39 -62 l-39 -45 -51 35 c-28 19 -51 37 -51 41 0 9 101 119 110
119 4 0 22 -16 39 -35z m1096 -20 c27 -32 45 -62 41 -70 -5 -13 -95 -85 -106
-84 -9 0 -80 97 -80 108 0 13 79 101 90 101 4 0 29 -25 55 -55z m135 -235 c0
-9 -15 -24 -32 -34 -18 -10 -47 -27 -64 -37 l-31 -19 -28 71 c-15 40 -24 74
-19 79 5 5 27 22 49 38 l39 30 43 -57 c23 -31 43 -63 43 -71z m-1330 91 l35
-28 -25 -54 c-38 -84 -35 -83 -100 -47 l-58 31 47 63 c25 35 51 63 56 64 6 0
26 -13 45 -29z m750 -88 c0 -21 11 -69 24 -108 14 -38 23 -71 22 -73 -6 -5
-196 -15 -196 -10 0 22 128 228 141 228 5 0 9 -17 9 -37z m-261 -58 c11 -35
23 -80 27 -100 l7 -37 -86 3 c-75 4 -89 7 -112 29 l-27 25 43 5 c35 4 48 11
66 38 12 19 25 53 29 78 8 59 27 45 53 -41z"/>
<path d="M1320 5000 l0 -450 63 0 62 0 121 180 121 180 81 -128 c122 -193 149
-216 266 -228 l66 -7 0 72 0 71 -40 0 c-30 0 -48 8 -76 32 -47 41 -217 295
-210 314 3 7 64 98 137 201 72 103 133 193 136 200 4 10 -12 13 -70 13 l-76 0
-223 -328 -223 -329 -3 329 -2 328 -65 0 -65 0 0 -450z"/>
<path d="M5530 5443 c0 -5 23 -35 50 -68 l50 -60 0 -383 0 -383 63 3 62 3 5
300 5 299 143 -172 c79 -95 147 -172 150 -172 4 0 72 78 152 174 l145 174 3
-304 2 -304 65 0 65 0 0 386 0 386 50 58 c28 32 50 60 50 64 0 3 -35 6 -79 6
l-78 0 -39 -43 c-22 -23 -106 -122 -188 -220 -82 -98 -153 -174 -156 -170 -4
5 -87 104 -184 221 l-177 212 -79 0 c-44 0 -80 -3 -80 -7z"/>
<path d="M3346 5188 c-120 -16 -224 -86 -273 -186 -23 -48 -28 -70 -28 -137 0
-67 5 -89 28 -137 49 -100 151 -169 275 -186 176 -24 332 54 397 199 24 54 27
71 23 142 -3 93 -26 147 -85 209 -70 72 -210 112 -337 96z m199 -157 c72 -40
97 -87 93 -173 -3 -57 -8 -72 -34 -105 -89 -109 -272 -121 -373 -25 -83 79
-78 218 12 286 79 60 211 67 302 17z"/>
<path d="M2475 5173 c29 -69 30 -62 -36 -183 -121 -221 -229 -425 -229 -432 0
-15 127 -9 139 6 26 32 179 72 306 82 l90 6 28 -51 28 -51 65 0 c35 0 64 2 64
4 0 3 -75 147 -167 320 l-167 316 -64 0 c-57 0 -63 -2 -57 -17z m157 -302 l57
-108 -72 -6 c-40 -3 -98 -14 -130 -24 -31 -11 -57 -18 -57 -15 0 10 133 262
139 262 3 0 32 -49 63 -109z"/>
<path d="M6960 5151 l20 -39 -24 -44 c-73 -136 -266 -507 -266 -512 0 -3 24
-6 54 -6 38 0 66 7 98 25 60 33 200 65 300 68 l83 2 25 -47 25 -48 68 0 68 0
-85 163 c-48 89 -123 233 -169 319 l-82 158 -68 0 -67 0 20 -39z m144 -276
c31 -57 56 -106 56 -108 0 -2 -33 -7 -73 -10 -39 -3 -98 -14 -130 -25 l-58
-21 19 32 c11 18 43 78 73 135 29 56 54 102 55 102 1 0 27 -47 58 -105z"/>
<path d="M4000 4860 l0 -311 63 3 62 3 3 107 c3 107 3 108 30 122 16 8 55 18
88 21 l60 7 52 -84 c92 -150 110 -165 217 -175 l65 -6 0 72 0 71 -44 0 c-33 0
-52 7 -76 26 -37 31 -68 86 -52 92 24 8 76 48 94 73 64 85 29 227 -65 269 -37
17 -67 20 -269 20 l-228 0 0 -310z m448 174 c22 -15 29 -49 14 -70 -16 -25
-56 -34 -149 -34 -59 -1 -114 -7 -138 -15 -22 -8 -41 -15 -42 -15 -2 0 -3 34
-3 75 l0 75 148 0 c117 0 152 -3 170 -16z"/>
<path d="M4880 4860 l0 -310 60 0 60 0 0 310 0 310 -60 0 -60 0 0 -310z"/>
<path d="M7510 4948 c0 -214 1 -225 24 -274 43 -92 131 -136 276 -135 143 0
223 42 268 140 25 54 26 65 30 274 l4 217 -66 0 -66 0 0 -205 c0 -229 -5 -252
-63 -281 -53 -28 -155 -30 -211 -6 -71 32 -76 52 -76 292 l0 200 -60 0 -60 0
0 -222z"/>
</g>
</svg>
