<!-- icon666.com - MILLIONS vector ICONS FREE --><svg id="Layer_1" enable-background="new 0 0 512 512" viewBox="0 0 512 512" xmlns="http://www.w3.org/2000/svg"><path d="m469.146 56.299c-4.416-10.873-13.279-19.432-24.318-23.481-59.355-21.776-122.886-32.818-188.828-32.818s-129.473 11.042-188.829 32.818c-11.038 4.049-19.901 12.608-24.317 23.481-4.396 10.826-4.017 23.077 1.041 33.611l198.583 413.582c2.497 5.2 7.754 8.507 13.522 8.507s11.025-3.308 13.522-8.507l198.583-413.581c5.059-10.535 5.438-22.786 1.041-33.612zm-398.497 11.288c1.259-3.1 3.693-5.445 6.855-6.605 56.036-20.558 116.09-30.982 178.496-30.982s122.46 10.424 178.496 30.982c3.162 1.16 5.597 3.506 6.855 6.605 1.239 3.052 1.136 6.368-.29 9.338l-6.995 14.568c-55.076-20.567-114.902-30.993-178.066-30.993s-122.99 10.426-178.067 30.993l-6.995-14.567c-1.425-2.971-1.528-6.287-.289-9.339zm185.351 394.759-165.027-343.695c51.012-18.685 106.443-28.151 165.027-28.151s114.016 9.466 165.027 28.151z"></path><path d="m200.25 120.5c-22.401 0-40.625 18.224-40.625 40.625s18.224 40.625 40.625 40.625 40.625-18.224 40.625-40.625-18.224-40.625-40.625-40.625zm0 51.25c-5.858 0-10.625-4.767-10.625-10.625s4.767-10.625 10.625-10.625 10.625 4.767 10.625 10.625-4.767 10.625-10.625 10.625z"></path><path d="m290.625 198.582c-22.401 0-40.625 18.224-40.625 40.625s18.224 40.625 40.625 40.625 40.625-18.224 40.625-40.625-18.224-40.625-40.625-40.625zm0 51.25c-5.858 0-10.625-4.767-10.625-10.625s4.767-10.625 10.625-10.625 10.625 4.767 10.625 10.625-4.767 10.625-10.625 10.625z"></path><path d="m211 262.5c-7.846 0-15.363 6.899-15 15 .364 8.127 6.591 15 15 15 7.846 0 15.363-6.899 15-15-.364-8.127-6.591-15-15-15z"></path><path d="m256 349c-7.846 0-15.363 6.899-15 15 .364 8.127 6.591 15 15 15 7.846 0 15.363-6.899 15-15-.364-8.127-6.591-15-15-15z"></path><path d="m336.333 140c-7.846 0-15.363 6.899-15 15 .364 8.127 6.591 15 15 15 7.846 0 15.363-6.899 15-15-.364-8.127-6.59-15-15-15z"></path></svg>